<svg xmlns="http://www.w3.org/2000/svg" viewBox="0 0 1024 1024"><defs><linearGradient id="b" x1=".279" x2=".277" y2=".574" gradientUnits="objectBoundingBox"><stop offset="0" stop-color="#fff" stop-opacity=".725"/><stop offset="1" stop-color="#fff" stop-opacity=".031"/></linearGradient><clipPath id="a"><path d="M0 0h1024v1024H0z"/></clipPath></defs><g clip-path="url(#a)"><circle cx="481.204" cy="481.204" r="481.204" transform="translate(30.796 30.796)" fill="#fff"/><path d="M360 674h67.288L665.45 426.662l-33.481-33.481zm-276.103-1.997l69.262-.155L546.084 281.94 512.143 248z"/><path d="M398.664 403.345l-33.13 33.13 229.663 233.88L664 672zM511.9 248.041l-33.9 33.9 391.11 391.111 66.197-1.685zM511.941 383l-31.773 31.773 252.736 257.23h63.373z"/><path d="M220.626 673h71.149L545 416.02l-32.83-32.83z"/><path d="M0 0h536L416.018 384.63 0 434.121z" transform="rotate(-90 595.903 84.097)" fill="url(#b)"/></g></svg>